#!OML:ASF F:\VICON\USERDATA\INSTALL\Justin_Nancy\Justin_Nancy.ASF
:FULLY-SPECIFIED
:DEGREES
33
root 14.3711 17.3645 -19.0259 -0.00955091 0.365768 -5.41103
lowerback 7.40121 2.5976 6.23933
upperback -0.885951 4.18046 3.0066
thorax -4.86348 1.93739 -0.832282
lowerneck -18.0721 -5.3532 -9.30064
upperneck 21.201 -6.64474 7.49306
head 10.3409 -2.95144 3.2506
rclavicle -2.21396e-014 -1.35174e-014
rhumerus -45.1762 14.1029 -90.6547
rradius 117.666
rwrist -10.6653
rhand -4.33594 24.4679
rfingers 7.12502
rthumb 21.4313 -4.36671
lclavicle -2.21396e-014 -1.35174e-014
lhumerus -55.3853 -5.58963 95.1033
lradius 103.346
lwrist 20.7807
lhand -20.0049 6.17037
lfingers 7.12502
lthumb 6.33506 36.0556
rfemur 11.6139 4.7396 33.4262
rtibia 41.2581
rfoot 17.4149 -6.37808
rtoes 1.67398
lfemur -34.3753 -6.33187 -7.80115
ltibia 32.748
lfoot 5.46238 6.74085
ltoes -6.11936
34
root 14.3785 17.3266 -18.6307 -0.355554 -0.451861 -5.55366
lowerback 7.65332 2.67481 6.14709
upperback -0.716501 4.28479 2.99407
thorax -4.82729 1.99437 -0.814634
lowerneck -18.1888 -5.31214 -9.23641
upperneck 21.2356 -6.65686 7.72166
head 10.3825 -2.92298 3.31979
rclavicle -3.84276e-014 7.95139e-015
rhumerus -45.7476 14.013 -90.9533
rradius 116.753
rwrist -9.87943
rhand -4.64143 24.0441
rfingers 7.12502
rthumb 21.1379 -4.82365
lclavicle -3.84276e-014 7.95139e-015
lhumerus -54.9244 -5.78258 94.9037
lradius 103.619
lwrist 20.2068
lhand -20.9386 6.38308
lfingers 7.12502
lthumb 5.43362 36.2934
rfemur 10.8091 4.7334 33.3184
rtibia 44.6571
rfoot 16.1806 -6.28758
rtoes -5.21559
lfemur -33.6665 -6.07725 -7.22566
ltibia 33.1086
lfoot 6.17032 5.15849
ltoes -7.92175
35
root 14.3917 17.2747 -18.2293 -0.709749 -1.62334 -5.34346
lowerback 7.77631 2.88805 5.76796
upperback -0.55946 4.5263 2.85321
thorax -4.73438 2.12647 -0.780109
lowerneck -17.8556 -5.10397 -9.06743
upperneck 20.9218 -6.4843 7.96208
head 10.1922 -2.81136 3.40485
rclavicle 2.23384e-014 2.38542e-014
rhumerus -46.4227 13.7904 -91.2106
rradius 115.778
rwrist -9.06882
rhand -5.28218 23.5947
rfingers 7.12502
rthumb 20.5223 -5.34057
lclavicle 2.23384e-014 2.38542e-014
lhumerus -54.5709 -6.03194 94.688
lradius 104.001
lwrist 19.863
lhand -21.0867 6.37428
lfingers 7.12502
lthumb 5.29068 36.2882
rfemur 9.88424 4.85143 32.6869
rtibia 48.3564
rfoot 14.6892 -6.16386
rtoes -5.55815
lfemur -32.7251 -5.69616 -7.01382
ltibia 33.7855
lfoot 6.16967 3.88696
ltoes -9.0715
36
root 14.4012 17.211 -17.842 -1.06362 -2.44355 -5.17291
lowerback 8.09018 2.86027 5.39505
upperback -0.402612 4.46691 2.80017
thorax -4.77268 2.1066 -0.636934
lowerneck -17.9748 -4.87719 -9.03995
upperneck 20.8539 -6.19649 8.11085
head 10.166 -2.65772 3.49502
rclavicle 6.43565e-015 7.55382e-015
rhumerus -46.7329 13.8916 -91.3824
rradius 114.668
rwrist -8.57724
rhand -5.41736 23.2336
rfingers 7.12502
rthumb 20.3924 -5.71567
lclavicle 6.43565e-015 7.55382e-015
lhumerus -53.8199 -6.07541 94.4245
lradius 104.157
lwrist 19.8105
lhand -20.7477 6.06597
lfingers 7.12502
lthumb 5.61795 35.9715
rfemur 8.63449 4.46842 32.0112
rtibia 52.2269
rfoot 13.3179 -6.22534
rtoes 1.61724
lfemur -31.7475 -5.20125 -6.91053
ltibia 34.6662
lfoot 5.31903 2.80588
ltoes -9.73993
37
root 14.4066 17.1433 -17.4659 -1.48606 -3.105 -4.97054
lowerback 8.74724 2.70724 4.87441
upperback -0.348922 4.25939 2.82688
thorax -5.13519 2.00876 -0.333116
lowerneck -17.9669 -4.59273 -9.13324
upperneck 20.7843 -5.77368 8.14129
head 10.1015 -2.4681 3.58388
rclavicle -4.43538e-014 -1.47101e-014
rhumerus -47.2079 14.1143 -91.4605
rradius 113.437
rwrist -8.19303
rhand -4.82482 24.1408
rfingers 7.12502
rthumb 20.9617 -4.74656
lclavicle -4.43538e-014 -1.47101e-014
lhumerus -53.2432 -5.90317 94.1875
lradius 104.426
lwrist 19.7251
lhand -19.8563 6.00959
lfingers 7.12502
lthumb 6.47853 35.8905
rfemur 7.22979 3.79418 31.2409
rtibia 56.1534
rfoot 12.2158 -6.61566
rtoes 1.11816
lfemur -30.5918 -4.61212 -6.90511
ltibia 35.6494
lfoot 3.31245 2.82668
ltoes -12.0769
38
root 14.4168 17.0678 -17.0806 -2.03389 -3.9761 -4.40906
lowerback 9.23533 2.69793 4.07994
upperback -0.166836 4.17854 2.68721
thorax -5.26597 1.98668 -0.0495863
lowerneck -17.8098 -4.34168 -8.91366
upperneck 20.4364 -5.43255 7.96117
head 9.90198 -2.31809 3.52771
rclavicle 1.72694e-015 7.95139e-015
rhumerus -47.7475 13.9261 -91.5857
rradius 112.177
rwrist -7.60346
rhand -4.69105 25.0726
rfingers 7.12502
rthumb 21.0902 -3.80045
lclavicle 1.72694e-015 7.95139e-015
lhumerus -52.6612 -6.01182 93.9662
lradius 104.723
lwrist 19.6338
lhand -19.581 6.13687
lfingers 7.12502
lthumb 6.74431 36.0095
rfemur 5.87503 3.11289 29.9284
rtibia 60.0926
rfoot 11.4545 -7.0927
rtoes 1.02057
lfemur -29.1465 -4.18719 -7.24147
ltibia 36.7303
lfoot 0.475317 1.99912
ltoes -17.1572
